<svg viewBox="0 0 446 150" fill="none" xmlns="http://www.w3.org/2000/svg"><path d="M142.38 76.98a417.002 417.002 0 0 0 4.922-5.47 311.804 311.804 0 0 0 5.032-5.578c1.605-1.896 3.1-3.683 4.485-5.36a217.076 217.076 0 0 0 3.72-4.376H179.9a733.8 733.8 0 0 1-11.376 12.799c-3.646 4.01-7.657 8.167-12.033 12.47 2.188 1.969 4.449 4.34 6.782 7.11a154.901 154.901 0 0 1 6.782 8.423 125.023 125.023 0 0 1 6.017 8.751c1.823 2.917 3.354 5.579 4.594 7.986h-18.705a170.256 170.256 0 0 0-4.048-6.235 104.18 104.18 0 0 0-4.704-6.892 79.413 79.413 0 0 0-5.36-6.673c-1.823-2.115-3.646-3.901-5.469-5.36v25.16h-16.299v-82.26l16.299-2.626V76.98Zm91.814 34.786c-2.771.802-6.345 1.531-10.72 2.188-4.376.729-8.97 1.093-13.783 1.093-4.886 0-8.97-.656-12.252-1.969-3.208-1.312-5.761-3.135-7.657-5.469-1.896-2.407-3.245-5.251-4.047-8.532-.803-3.282-1.204-6.892-1.204-10.83v-32.05h16.299v30.081c0 5.25.693 9.043 2.079 11.377 1.385 2.333 3.974 3.5 7.766 3.5 1.167 0 2.407-.036 3.72-.109 1.312-.146 2.479-.292 3.5-.438V56.196h16.299v55.57Zm48.882-27.238c0-10.501-3.865-15.752-11.595-15.752-1.677 0-3.355.219-5.032.656-1.604.438-2.917.985-3.938 1.641v29.644c.802.146 1.823.292 3.063.438 1.24.073 2.589.109 4.047.109 4.449 0 7.803-1.531 10.064-4.594 2.261-3.063 3.391-7.11 3.391-12.142Zm16.627.438c0 4.594-.693 8.75-2.078 12.47-1.313 3.719-3.245 6.891-5.798 9.517-2.552 2.625-5.688 4.667-9.407 6.125-3.719 1.386-7.949 2.079-12.689 2.079-1.969 0-4.048-.11-6.235-.328a93.425 93.425 0 0 1-6.345-.657c-2.042-.291-4.011-.62-5.907-.984a81.425 81.425 0 0 1-5.032-1.313v-80.4l16.299-2.626v28.66a30.524 30.524 0 0 1 5.688-1.86c1.969-.437 4.084-.656 6.345-.656 4.084 0 7.694.73 10.829 2.188 3.136 1.385 5.761 3.39 7.876 6.016 2.115 2.625 3.72 5.798 4.813 9.517 1.094 3.646 1.641 7.73 1.641 12.252Zm6.511.437c0-5.105.765-9.553 2.297-13.345 1.604-3.866 3.683-7.074 6.235-9.627 2.552-2.552 5.469-4.484 8.751-5.797 3.355-1.313 6.782-1.97 10.283-1.97 8.167 0 14.621 2.517 19.361 7.549 4.741 4.959 7.111 12.288 7.111 21.987 0 .948-.037 2.005-.11 3.172a192.914 192.914 0 0 1-.218 2.954H322.95c.365 3.354 1.933 6.016 4.704 7.985 2.771 1.969 6.49 2.953 11.157 2.953 2.99 0 5.907-.255 8.752-.765 2.917-.584 5.287-1.276 7.11-2.079l2.188 13.236c-.875.438-2.042.875-3.501 1.313-1.458.438-3.099.802-4.922 1.094a58.539 58.539 0 0 1-5.689.875 57.374 57.374 0 0 1-6.125.328c-5.178 0-9.699-.766-13.565-2.297-3.792-1.531-6.964-3.61-9.516-6.235-2.48-2.698-4.339-5.871-5.579-9.517-1.167-3.646-1.75-7.584-1.75-11.814Zm38.286-6.235a15.267 15.267 0 0 0-.766-4.047 9.028 9.028 0 0 0-1.86-3.5c-.802-1.022-1.859-1.86-3.172-2.517-1.24-.656-2.808-.984-4.704-.984-1.823 0-3.391.328-4.703.984-1.313.584-2.407 1.386-3.282 2.407-.875 1.02-1.568 2.224-2.078 3.61a25.187 25.187 0 0 0-.985 4.047h21.55Z" fill="#253391"/><path fill-rule="evenodd" clip-rule="evenodd" d="M55.16 118.997c-.99.023-1.844.173-2.391.368-.43.153-.736.356-.93.543-.43.413-.567.878-.523 1.332v.093c.002.243.053.445.135.612.056.14.124.28.204.42l-.014.01-.005.004c-1.29.038-2.572.097-3.837.174-6.285.382-12.02 1.235-16.494 2.449l-.594-.108a1.458 1.458 0 0 0-.367-.019 5.732 5.732 0 0 1-1.153-.022 38.601 38.601 0 0 1-3.231-.752 30.628 30.628 0 0 0-1.782-.487l-.562-.115a10.82 10.82 0 0 0-2.025-.198c-.95-.011-1.866.111-2.465.305l-.053.018c-1.223.449-1.446 1.305-1.42 1.813.02.387.17.81.591 1.18.277.242.827.534 1.678.692l.502.103.047.009c.69.118 1.408.226 2.147.322.485.07.96.143 1.424.222-.785.51-1.406 1.035-1.86 1.562-.806.931-1.19 1.888-1.167 2.85a4.271 4.271 0 0 1-.544.127 85.8 85.8 0 0 1-4.384.196 80.31 80.31 0 0 0-2.462.055l-.704.042c-.762.046-.814.028-.044-.001-1.335.051-2.424.402-2.86.734-.815.624-.832 1.353-.555 1.981.158.36.632.917 1.641 1.184l.005.001c.788.205 1.947.289 3.012.203h.033l.683-.021.068-.004a66.938 66.938 0 0 0 2.311-.224 79.417 79.417 0 0 1 4.28-.335 7.31 7.31 0 0 1 1.17.106c.105.02.212.027.319.022l.63-.029c2.213 1.573 6.051 2.982 11.074 4.013a14.91 14.91 0 0 0-.498.21 1.552 1.552 0 0 0-.113.056l-.28.155c-.991.474-1.155 1.24-1.102 1.754.046.445.324 1.123 1.293 1.509.644.256 1.785.427 2.96.393h.004c1.215-.038 2.245-.319 2.755-.617l.28-.15a1.2 1.2 0 0 0 .133-.081 6.27 6.27 0 0 0 .827-.67c.184-.125.352-.253.517-.379.261-.2.502-.403.915-.542a4.45 4.45 0 0 1 .765-.09 1.42 1.42 0 0 0 .547-.136l.216-.103c7.355.693 15.436.683 22.802-.029l.142.07c.18.089.376.139.577.146.313.012.599.042.807.101.53.267.966.54 1.305.826.251.248.553.495.907.735.042.029.086.055.131.079l.288.153c.504.291 1.537.566 2.752.598 1.174.032 2.318-.141 2.965-.399l.007-.003c.976-.395 1.244-1.083 1.283-1.534.043-.509-.132-1.27-1.129-1.736l-.288-.154a1.352 1.352 0 0 0-.103-.05 13.046 13.046 0 0 0-.481-.2c5.03-1.058 8.866-2.492 11.063-4.081l.564.025c.131.006.262-.007.39-.037a4.7 4.7 0 0 1 1.045-.101c1.473.071 2.912.188 4.303.32.752.088 1.523.163 2.306.226l.392.022.07.001H96l-.06-.001c.098.005.197.009.284.015l.068.001c1.069.083 2.231-.007 3.018-.216 1.001-.265 1.477-.813 1.639-1.168.29-.636.276-1.367-.539-1.994l-.012-.009c-.438-.33-1.528-.674-2.86-.72l-.707-.042-.037-.002a77.718 77.718 0 0 0-2.468-.045 84.88 84.88 0 0 1-4.388-.179 3.41 3.41 0 0 1-.535-.114c.007-.969-.394-1.931-1.226-2.864-.464-.519-1.09-1.037-1.879-1.539.463-.081.938-.159 1.42-.231a53.723 53.723 0 0 0 2.187-.34l.524-.111c1.012-.172 1.659-.563 1.923-.859.493-.55.546-1.143.298-1.722v-.002c-.128-.297-.387-.644-.87-.903-.399-.214-1.104-.417-1.997-.496-1.08-.096-2.28-.012-3.095.198l-.521.108-.052.012c-.614.153-1.194.315-1.737.485-.934.28-1.975.537-3.103.77-.404.04-.837.051-1.26.033a1.376 1.376 0 0 0-.32.023l-.645.12c-5.411-1.425-12.558-2.326-20.235-2.539l-.006-.006a3.31 3.31 0 0 0 .264-.584c.05-.148.076-.302.076-.458v-.106c.042-.451-.095-.916-.526-1.328-.195-.187-.503-.389-.932-.541-.537-.189-1.368-.334-2.338-.356a1.16 1.16 0 0 0-.192-.007ZM14.06 136.9c-.724 0-.705-.026 0-.002v.002Z" fill="#4D7CF4"/><path d="M83.429 132.475c0 3.902-12.654 7.066-28.263 7.066-15.609 0-28.262-3.164-28.262-7.066v-5.299s19.975-.353 27.881-.353c7.55 0 23.489.353 28.644.353v5.299Z" fill="#3251A3"/><ellipse cx="55.166" cy="127.529" rx="28.263" ry="7.066" fill="#9BAED6"/><ellipse cx="61.878" cy="127.529" rx="21.55" ry="5.653" fill="#849BCD"/><path d="M48.498 11.793c6.92-1.18 14.164 1.451 19.358 6.047.838.817 1.916 1.528 2.387 2.637-.209.616-.436 1.227-.655 1.846-4.449.12-8.876-1.303-13.31-.407-5.324.929-10.293 4.567-12.279 9.674-1 2.694-1.249 5.578-1.672 8.4-1.41.355-2.817.716-4.23 1.061-1.956-5.394-1.975-11.455.033-16.836 1.867-5.198 5.774-9.456 10.368-12.422Z" fill="#5C5C5C"/><path d="M48.498 11.793c-4.064.199-8.279 1.023-11.798 3.112-3.77 5.524-6.176 12.188-5.526 18.949.124 4.927 2.431 9.39 3.32 14.17 4.1 17.568 8.445 35.076 12.58 52.637l.002.001c.439.131.877.262 1.319.404.96 2.296 1.493 4.74 1.682 7.218-1.861.7-3.808 1.125-5.782 1.336-.943-2.233-1.449-4.61-1.676-7.012-2.17.857-4.344 1.718-6.381 2.859 1.383 2.62 2.576 5.345 3.404 8.192 1.404 1.031 2.957 1.836 4.517 2.613l1.816-2.336c3.028-1.995 6.822-2.112 10.332-2.327-.845-1.203-1.86-2.274-2.957-3.247.954.023 1.903.04 2.858.103-.646-3.214-2.018-6.31-2.122-9.603 1.555-1.074 3.506-1.21 5.293-1.671-.386-2.524-.913-5.022-1.32-7.54-2.138.461-4.213 1.312-6.418 1.401-1.587-.06-1.72-2-2.124-3.154-.353-1.81-1.179-3.734-.544-5.554 1.737-1.158 3.879-1.4 5.846-1.964-.243-1.72-.65-3.429-1.529-4.937-1.619.423-3.198 1.054-4.879 1.159-.605.022-1.352-.186-1.596-.789-.797-1.746-1.155-3.65-1.507-5.522l-.008-.038c-.102-.913-.395-2.21.607-2.734 1.8-.942 3.837-1.281 5.777-1.83a123.595 123.595 0 0 1-1.305-4.96c-1.97.446-3.901 1.26-5.944 1.213-1.139-.106-1.39-1.394-1.7-2.268-.648-2.603-1.154-5.243-1.838-7.839-.22-1.116-.651-2.672.506-3.422 1.84-.924 3.918-1.193 5.892-1.71-.608-2.484-1.082-5.006-1.953-7.416a86.918 86.918 0 0 0-3.015.703c-1.41.355-2.817.716-4.23 1.061-1.956-5.394-1.975-11.455.033-16.836 1.867-5.198 5.774-9.456 10.367-12.422Z" fill="#C4C4C4"/><path d="M69.588 22.323c.219-.618.446-1.23.655-1.846 4.109 4.187 5.932 10.084 6.533 15.795-10.556-.45-21.132.736-31.434 3.015a87.258 87.258 0 0 0-3.015.703c.423-2.822.672-5.706 1.672-8.4 1.986-5.107 6.955-8.745 12.279-9.674 4.434-.895 8.861.528 13.31.407Z" fill="#464646"/><path d="M27.886 20.076c2.504-2.299 5.52-4.228 8.814-5.172-3.77 5.525-6.175 12.19-5.526 18.95.124 4.927 2.431 9.39 3.321 14.17 4.1 17.568 8.444 35.076 12.579 52.637-1.47.677-2.95 1.345-4.455 1.946-2.17.858-4.344 1.719-6.381 2.86-1.07.576-1.841 1.53-2.31 2.643-.41-.282-1.12-.302-1.235-.862-.604-2.086-1.074-4.212-1.602-6.319-.394-1.334.689-2.415 1.427-3.38 2.33-.466 4.456-1.664 6.381-3.016 1.84-1.418 1.063-4.016.696-5.936-.355-1.26-.63-3.352-2.386-3.16-2.552.527-4.638 2.216-6.801 3.562-.627.346-1.32.544-1.986.79-.732-1.359-1.593-2.781-1.522-4.38.529-.887 1.485-1.372 2.364-1.841 2.487-1.404 5.43-2.248 7.423-4.374.404-2.278-.563-4.566-1.176-6.737-.198-1.053-1.281-1.867-2.34-1.432-2.269.736-4.161 2.252-6.2 3.431-.712.487-1.565.63-2.391.738-.368-1.476-1.075-2.962-.82-4.506.5-.683 1.274-1.08 1.997-1.472 2.486-1.398 5.341-2.292 7.432-4.293.527-1.244-.028-2.628-.261-3.884-.717-2.45-1.018-5.007-1.84-7.423-.245-.877-1.201-1.53-2.095-1.195-1.856.593-3.552 1.613-5.234 2.581-.766.384-1.2 1.133-1.599 1.85-.272.017-.81.052-1.082.065-.814-2.84-3.115-6.56-.61-9.123 2.634-1.356 5.383-2.495 7.869-4.123-2.98-7.511-3.258-15.99-.45-23.595Z" fill="#D4D4D4"/><path d="M20.723 29.515c1.633-3.62 3.995-7.01 7.163-9.439-2.808 7.606-2.53 16.084.45 23.595-2.485 1.628-5.235 2.767-7.87 4.123-2.246-5.825-2.33-12.552.257-18.279Z" fill="#5C5C5C"/><path d="M76.776 36.272c1.152.109 2.347.822 2.673 1.997.664 2.01 1.162 4.116 1.015 6.248-.48.012-.952.021-1.424.035-.89-.49-1.852-.905-2.884-.874-9.697-.187-19.41.854-28.862 3.025-.608-2.484-1.081-5.006-1.952-7.416 10.302-2.279 20.878-3.466 31.434-3.015Z" fill="#9E9E9E"/><path d="M76.157 43.678c1.031-.031 1.993.384 2.884.874.01 4.286 1.657 8.337 2.497 12.495-10.491-.223-20.984 1.175-31.159 3.683-1.97.445-3.901 1.26-5.944 1.212-1.138-.106-1.39-1.394-1.7-2.268-.648-2.603-1.153-5.243-1.838-7.839-.22-1.116-.65-2.672.507-3.422 1.84-.924 3.917-1.193 5.89-1.71 9.452-2.17 19.166-3.212 28.863-3.025Z" fill="#464646"/><path d="M50.379 60.73c10.174-2.508 20.667-3.906 31.159-3.682.772.023 1.556.092 2.308.326 1.034 1.542 1.168 3.458 1.533 5.231-.702.147-1.422.52-2.145.286-2.951-1.014-6.079-.566-9.122-.489-7.569.287-15.073 1.534-22.428 3.287a123.595 123.595 0 0 1-1.305-4.96Z" fill="#9E9E9E"/><path d="M28.993 52.42c.893-.334 1.85.32 2.096 1.196.82 2.416 1.122 4.973 1.838 7.423.233 1.256.79 2.64.262 3.884-2.09 2-4.946 2.895-7.432 4.293-.888-3.283-1.54-6.62-2.285-9.935-.17-.935-.707-1.725-1.312-2.43.399-.716.833-1.465 1.599-1.849 1.681-.968 3.378-1.988 5.234-2.581Zm45.119 9.982c3.043-.077 6.17-.525 9.122.489.183 2.926 1.122 5.726 1.632 8.601-10.636-.05-21.282 1.3-31.576 3.95-1.619.424-3.198 1.055-4.88 1.16-.604.022-1.352-.186-1.595-.789-.803-1.758-1.16-3.677-1.515-5.56-.102-.913-.396-2.21.607-2.734 1.799-.942 3.837-1.281 5.777-1.83 7.355-1.753 14.86-3 22.428-3.287Z" fill="#464646"/><path d="M84.866 71.492c.9.1 2.025.039 2.698.747.825 1.517 1.026 3.28 1.042 4.987a79.602 79.602 0 0 0-2.165-.255c-10.63-.763-21.304.943-31.622 3.41-.243-1.722-.65-3.43-1.529-4.938 10.294-2.652 20.94-4.002 31.576-3.951Z" fill="#9E9E9E"/><path d="M54.82 80.38c10.318-2.466 20.991-4.172 31.621-3.41.446 3.162 1.282 6.25 1.946 9.374-10.195-.29-20.426.878-30.327 3.306-2.139.462-4.214 1.313-6.419 1.402-1.587-.06-1.72-2-2.124-3.154-.353-1.81-1.179-3.734-.543-5.554 1.737-1.158 3.878-1.4 5.846-1.964Zm-21.65-9.355c1.06-.436 2.143.379 2.34 1.432.613 2.172 1.58 4.459 1.177 6.737-1.993 2.126-4.936 2.97-7.423 4.374-.891-3.005-1.258-6.147-2.293-9.112 2.039-1.18 3.931-2.695 6.2-3.43Z" fill="#464646"/><path d="M88.387 86.344c.96-.015 2.027.366 2.394 1.344.883 2.271 1.323 4.714 1.398 7.15l-.459-.111c-6.38-1.458-12.97-.211-19.409.147-4.377.36-8.672 1.301-12.932 2.317-.385-2.524-.913-5.022-1.32-7.54 9.902-2.429 20.132-3.597 30.328-3.307Z" fill="#9E9E9E"/><path d="M72.311 94.874c6.438-.358 13.03-1.605 19.41-.147-1.254 1.132-2.092 2.601-2.53 4.224-1.837 5.751-6.539 10.099-11.781 12.825-2.936 1.455-5.974 2.858-9.243 3.353 3.022-2.715 4.933-6.62 5.258-10.662.259-3.248-.636-6.416-1.114-9.593Z" fill="#666"/><path d="M30.407 88.999c2.163-1.346 4.25-3.035 6.801-3.562 1.756-.192 2.032 1.9 2.386 3.16.367 1.92 1.144 4.518-.695 5.936-1.925 1.352-4.051 2.55-6.381 3.016-.522-2.892-1.013-5.813-2.11-8.55Z" fill="#464646"/><path d="M30.49 89.026c1.03 2.588 1.53 5.372 2.013 8.065l.069.38c1.96-.405 3.96-1.357 6.29-2.993 1.615-1.245 1.158-3.47.79-5.258-.043-.21-.085-.414-.122-.61-.043-.151-.086-.32-.13-.496-.313-1.236-.7-2.773-2.184-2.611-1.995.412-3.73 1.56-5.408 2.668-.431.285-.876.58-1.318.855Zm2.016 8.588a.066.066 0 0 1-.025-.01.065.065 0 0 1-.028-.044l-.08-.447c-.486-2.703-.988-5.5-2.027-8.089a.067.067 0 0 1 .026-.081c.456-.283.917-.588 1.363-.883 1.688-1.116 3.434-2.27 5.46-2.688 1.603-.176 2.025 1.491 2.334 2.71.044.174.086.342.13.496.039.202.08.406.123.615.375 1.824.842 4.095-.842 5.392-2.373 1.668-4.408 2.63-6.408 3.029a.057.057 0 0 1-.026 0Z" fill="#5B2D4A"/><path d="M59.378 97.19c4.261-1.015 8.556-1.957 12.933-2.316.478 3.177 1.373 6.345 1.114 9.593-.325 4.042-2.237 7.947-5.258 10.662-1.425.611-2.917 1.063-4.403 1.507-1.078.202-2.174.211-3.264.163l-.262-1.134c1.323-.85 2.864-1.561 3.732-2.928.266-1.029-.614-1.932-1.364-2.493-1.895-1.225-4.211-1.51-6.398-1.779-.646-3.214-2.018-6.31-2.123-9.603 1.556-1.074 3.507-1.21 5.293-1.671Z" fill="#8F8F8F"/><path d="M47.074 100.662c.44.131.88.262 1.322.404.96 2.296 1.492 4.74 1.681 7.218-1.86.7-3.807 1.126-5.781 1.336-.944-2.233-1.45-4.61-1.677-7.012 1.505-.602 2.984-1.27 4.455-1.946Z" fill="#A3A3A3"/><path d="M53.35 108.362c.953.023 1.903.04 2.858.103 2.187.269 4.503.554 6.398 1.779.75.561 1.63 1.464 1.364 2.493-.868 1.367-2.409 2.078-3.731 2.928-.24-2.155-1.953-3.517-3.932-4.056-.845-1.203-1.86-2.274-2.957-3.247Zm-19.422-.252c.468-1.113 1.239-2.067 2.31-2.643 1.383 2.62 2.576 5.345 3.404 8.192-.42-.313-.83-.63-1.224-.948-1.56-1.5-2.12-4.057-4.49-4.601Z" fill="#757575"/><path d="M56.307 111.609c-3.51.215-7.303.332-10.332 2.327-1.395.901-2.204 2.592-.584 3.108 1.62.517 5.497 1.887 8.642 1.625 0 0 6.146-1.505 6.339-3.122.193-1.618-2.086-3.399-4.065-3.938Z" fill="#464646"/><path d="M47.032 127.011v-6.451c0-1.369-1.173-5.474-1.173-5.474s3.127-1.759 6.255-2.15 5.004.391 6.452.391c1.955 3.323 5.278 13.684 5.278 13.684s-4.496 2.151-10.361 2.346c-5.865.196-6.451-2.346-6.451-2.346Z" fill="#95A2BB"/><path d="M51.528 113.131c.586 4.637 8.797 15.053 8.797 15.053s1.76-.195 3.519-1.368l-5.083-13.435s-3.846-.696-7.233-.25Z" fill="#66789D"/><path d="M368.981 81.799V58.365h21l-15.448 25.01c-1.588 2.572-5.552 1.446-5.552-1.576Z" fill="#4D7CF4"/><rect x="368.981" y="30.365" width="65" height="44" rx="3" fill="#4D7CF4"/><path d="M381.248 67.365V36.766h13.221v4.571h-6.46v7.706h5.629v4.722h-5.629v13.6h-6.761Zm17.399 0 .529-30.599h7.253l3.362 17.793 3.626-17.793h6.989l.529 30.599h-4.798l-.566-20.362-3.551 20.362h-4.269l-3.778-20.513-.453 20.513h-4.873Z" fill="#fff"/></svg>